# xmcd
#
# Track frame offsets:
#	150
#	10400
#	25833
#	37251
#	45397
#	57002
#	69258
#	76813
#	87145
#	99895
#	109086
#	118880
#	130869
#	137071
#	152861
#	167748
#	181469
#	194886
#
# Disc length: 2972 seconds
#
# Revision: 0
# Processed by: cddbd v1.5.2PL0 Copyright (c) Steve Scherf et al.
# Submitted via: dBpowerAMP V4.0
#
DISCID=ef0b9a12
DTITLE=Todd Dereemer - Cathedral
DYEAR=2002
DGENRE=Country
TTITLE0=Rodeo Queen
TTITLE1=Cathedral
TTITLE2=Christmas in July
TTITLE3=Carol and Charlie
TTITLE4=Calling You Back from the Grave
TTITLE5=Waht if I Told You
TTITLE6=Everytime I See You Baby
TTITLE7=Charlie Brown
TTITLE8=First Breath
TTITLE9=Kitchen Sink
TTITLE10=Luvy Duvy
TTITLE11=Maybe That's Something
TTITLE12=Had a Little Baby
TTITLE13=You are my Dream
TTITLE14=You are so beautiful to me
TTITLE15=Someday we gonna live together
TTITLE16=Keeping Her Last Name
TTITLE17=Love in the Twilight
EXTD=
EXTT0=
EXTT1=
EXTT2=
EXTT3=
EXTT4=
EXTT5=
EXTT6=
EXTT7=
EXTT8=
EXTT9=
EXTT10=
EXTT11=
EXTT12=
EXTT13=
EXTT14=
EXTT15=
EXTT16=
EXTT17=
PLAYORDER=
